<svg width="251" height="65" viewBox="0 0 251 65" fill="none" xmlns="http://www.w3.org/2000/svg">
<path d="M27.9791 52.6055L54.7266 32.354L27.9791 58.2571V52.6055Z" fill="#032D24"/>
<path d="M27.9791 6.92188L54.7266 32.354M54.7266 32.354L27.9791 52.6055V58.2571L54.7266 32.354Z" stroke="#032D24"/>
<path d="M27.474 9.2729L0.726562 28.1115L27.474 4.56325V9.2729Z" fill="#032D24"/>
<path d="M27.9787 55.8984L0.726562 28.1115M0.726562 28.1115L27.474 9.2729V4.56325L0.726562 28.1115Z" stroke="#032D24"/>
<path d="M28.1172 0L28.1172 65" stroke="#032D24"/>
<path d="M95.4586 19.808C97.1146 19.856 98.6506 20.24 100.067 20.96C101.507 21.68 102.695 22.58 103.631 23.66C104.591 24.716 105.407 25.904 106.079 27.224C106.751 28.52 107.231 29.792 107.519 31.04C107.831 32.264 107.987 33.392 107.987 34.424L105.755 35C105.755 34.4 105.695 33.728 105.575 32.984C105.455 32.216 105.263 31.376 104.999 30.464C104.735 29.528 104.411 28.604 104.027 27.692C103.643 26.78 103.151 25.892 102.551 25.028C101.951 24.14 101.279 23.36 100.535 22.688C99.8146 22.016 98.9506 21.476 97.9426 21.068C96.9586 20.636 95.9026 20.408 94.7746 20.384L91.6786 22.976V34.424L88.2946 35V22.832L85.3786 20.384C84.0586 20.408 82.8346 20.708 81.7066 21.284C80.5786 21.836 79.6306 22.556 78.8626 23.444C78.0946 24.308 77.4106 25.268 76.8106 26.324C76.2106 27.356 75.7426 28.424 75.4066 29.528C75.0706 30.632 74.8186 31.652 74.6506 32.588C74.4826 33.5 74.3986 34.304 74.3986 35L72.1666 34.424C72.1666 33.392 72.3106 32.264 72.5986 31.04C72.9106 29.792 73.4026 28.52 74.0746 27.224C74.7466 25.904 75.5506 24.716 76.4866 23.66C77.4466 22.58 78.6346 21.68 80.0506 20.96C81.4906 20.24 83.0386 19.856 84.6946 19.808L71.7706 8.972L72.1306 8.54L88.2946 22.076V9.08L91.6786 8.54V22.256L108.023 8.54L108.383 8.972L95.4586 19.808ZM133.842 34.604L136.65 34.568V37.952L133.266 38.528V35.144H112.998V37.952L109.614 38.528V34.568H112.422C113.958 34.568 115.182 34.04 116.094 32.984C117.03 31.928 117.498 30.212 117.498 27.836C117.498 24.332 117.594 21.032 117.786 17.936C117.978 14.84 118.158 12.62 118.326 11.276L118.614 9.26H130.458L133.842 8.684V34.604ZM115.23 34.568H130.458V9.8H119.082C118.41 14.432 118.074 20.624 118.074 28.376C118.074 29.936 117.822 31.244 117.318 32.3C116.814 33.332 116.118 34.088 115.23 34.568ZM159.875 35.108L155.771 26.108C154.211 26.156 151.907 26.528 148.859 27.224C145.811 27.92 143.447 28.28 141.767 28.304L138.707 35.144L138.203 34.892L148.895 10.916L148.715 10.556L149.183 10.196L151.487 8.54L162.647 33.092L159.875 35.108ZM142.019 27.764C143.627 27.716 145.907 27.356 148.859 26.684C151.811 26.012 154.031 25.628 155.519 25.532L149.183 11.6L142.019 27.764ZM184.713 9.08L188.097 8.54V34.424L184.713 35V19.808C182.937 19.808 180.405 20.18 177.117 20.924C173.829 21.668 171.297 22.04 169.521 22.04V34.424L166.137 35V9.08L169.521 8.54V21.5C171.297 21.5 173.829 21.128 177.117 20.384C180.405 19.616 182.937 19.232 184.713 19.232V9.08ZM200.933 9.332C202.541 8.804 204.281 8.54 206.153 8.54C208.049 8.54 209.789 8.804 211.373 9.332C212.981 9.836 214.409 10.604 215.657 11.636C216.905 12.644 217.889 14 218.609 15.704C219.329 17.384 219.689 19.316 219.689 21.5C219.689 23.684 219.329 25.652 218.609 27.404C217.889 29.132 216.905 30.548 215.657 31.652C214.409 32.732 212.981 33.56 211.373 34.136C209.765 34.712 208.025 35 206.153 35C204.305 35 202.577 34.712 200.969 34.136C199.361 33.56 197.933 32.732 196.685 31.652C195.437 30.548 194.453 29.132 193.733 27.404C193.013 25.652 192.653 23.684 192.653 21.5C192.653 19.316 193.013 17.384 193.733 15.704C194.453 14 195.437 12.644 196.685 11.636C197.933 10.604 199.349 9.836 200.933 9.332ZM207.305 34.424C208.385 34.424 209.381 34.256 210.293 33.92C211.205 33.56 211.985 33.068 212.633 32.444C213.281 31.82 213.845 31.1 214.325 30.284C214.805 29.468 215.189 28.568 215.477 27.584C215.765 26.6 215.969 25.604 216.089 24.596C216.233 23.588 216.305 22.556 216.305 21.5C216.305 19.748 216.077 18.164 215.621 16.748C215.165 15.332 214.553 14.156 213.785 13.22C213.041 12.284 212.177 11.504 211.193 10.88C210.209 10.232 209.201 9.776 208.169 9.512C207.137 9.224 206.093 9.08 205.037 9.08C203.741 9.08 202.565 9.32 201.509 9.8C200.477 10.256 199.625 10.88 198.953 11.672C198.281 12.44 197.717 13.364 197.261 14.444C196.805 15.524 196.481 16.652 196.289 17.828C196.121 18.98 196.037 20.204 196.037 21.5C196.037 23.228 196.265 24.824 196.721 26.288C197.177 27.752 197.777 28.976 198.521 29.96C199.289 30.944 200.165 31.784 201.149 32.48C202.133 33.152 203.141 33.644 204.173 33.956C205.205 34.268 206.249 34.424 207.305 34.424ZM242.467 19.664C244.291 20.12 245.743 20.972 246.823 22.22C247.927 23.444 248.479 25.076 248.479 27.116C248.479 29.948 247.399 31.976 245.239 33.2C243.103 34.4 239.671 35 234.943 35C234.559 35 234.127 34.988 233.647 34.964C233.167 34.94 232.699 34.916 232.243 34.892C231.787 34.868 231.331 34.832 230.875 34.784C230.419 34.736 229.999 34.7 229.615 34.676C229.231 34.628 228.883 34.592 228.571 34.568C228.283 34.52 228.055 34.484 227.887 34.46L227.635 34.424L224.251 35V9.08L227.635 8.54H237.211C238.123 8.54 238.999 8.6 239.839 8.72C240.679 8.84 241.483 9.044 242.251 9.332C243.043 9.62 243.727 9.98 244.303 10.412C244.879 10.844 245.335 11.396 245.671 12.068C246.031 12.74 246.211 13.496 246.211 14.336C246.211 15.944 245.851 17.18 245.131 18.044C244.435 18.884 243.547 19.424 242.467 19.664ZM236.635 9.08H227.635V21.428C228.883 21.332 230.623 20.96 232.855 20.312C235.111 19.64 236.959 19.28 238.399 19.232H238.327C239.743 19.232 240.847 18.764 241.639 17.828C242.431 16.868 242.827 15.644 242.827 14.156C242.827 13.292 242.647 12.524 242.287 11.852C241.927 11.18 241.435 10.652 240.811 10.268C240.211 9.884 239.551 9.596 238.831 9.404C238.135 9.188 237.403 9.08 236.635 9.08ZM235.519 34.424C237.223 34.424 238.711 34.22 239.983 33.812C241.279 33.404 242.287 32.84 243.007 32.12C243.727 31.4 244.255 30.62 244.591 29.78C244.927 28.94 245.095 28.052 245.095 27.116C245.095 24.98 244.495 23.264 243.295 21.968C242.119 20.648 240.655 19.928 238.903 19.808C237.319 19.808 235.351 20.156 232.999 20.852C230.647 21.524 228.859 21.908 227.635 22.004V33.884C230.971 34.244 233.599 34.424 235.519 34.424Z" fill="#032D24"/>
<path d="M75.1016 52.3594C76.0339 52.3594 76.7318 52.5938 77.1953 53.0625C77.6589 53.5312 77.8906 54.2786 77.8906 55.3047V61H77.2812L77.1406 59.5156H77.0938C76.9115 59.8333 76.6901 60.1172 76.4297 60.3672C76.1693 60.612 75.849 60.8047 75.4688 60.9453C75.0938 61.0859 74.6354 61.1562 74.0938 61.1562C73.5469 61.1562 73.0781 61.0651 72.6875 60.8828C72.3021 60.7005 72.0026 60.4349 71.7891 60.0859C71.5807 59.737 71.4766 59.3125 71.4766 58.8125C71.4766 57.9688 71.8255 57.3281 72.5234 56.8906C73.2214 56.4479 74.224 56.1979 75.5312 56.1406L77.1094 56.0625V55.4453C77.1094 54.5755 76.9375 53.9557 76.5938 53.5859C76.25 53.2161 75.7422 53.0312 75.0703 53.0312C74.6328 53.0312 74.2109 53.0885 73.8047 53.2031C73.4036 53.3125 72.9948 53.4714 72.5781 53.6797L72.3281 53.0234C72.7344 52.8307 73.1693 52.6719 73.6328 52.5469C74.1016 52.4219 74.5911 52.3594 75.1016 52.3594ZM77.1016 56.6797L75.6172 56.7422C74.5391 56.7943 73.7188 56.987 73.1562 57.3203C72.5938 57.6536 72.3125 58.1536 72.3125 58.8203C72.3125 59.3568 72.4792 59.7682 72.8125 60.0547C73.151 60.3411 73.6198 60.4844 74.2188 60.4844C75.151 60.4844 75.862 60.2188 76.3516 59.6875C76.8464 59.1562 77.0964 58.4323 77.1016 57.5156V56.6797ZM86.9844 54.5781C86.9844 55.1146 86.8438 55.5365 86.5625 55.8438C86.2865 56.151 85.9193 56.3594 85.4609 56.4688V56.5156C86.0182 56.599 86.4661 56.8099 86.8047 57.1484C87.1484 57.4818 87.3203 57.9609 87.3203 58.5859C87.3203 59.0807 87.2109 59.5078 86.9922 59.8672C86.7734 60.2266 86.4375 60.5052 85.9844 60.7031C85.5365 60.901 84.9609 61 84.2578 61H80.625V52.5078H84.1641C84.7891 52.5078 85.3099 52.5885 85.7266 52.75C86.1432 52.9062 86.4557 53.138 86.6641 53.4453C86.8776 53.7474 86.9844 54.125 86.9844 54.5781ZM86.5 58.5859C86.5 57.9766 86.2943 57.5391 85.8828 57.2734C85.4714 57.0078 84.8672 56.875 84.0703 56.875H81.4219V60.3281H84.1172C84.9141 60.3281 85.5104 60.1875 85.9062 59.9062C86.3021 59.6198 86.5 59.1797 86.5 58.5859ZM86.1797 54.6406C86.1797 54.1927 86.0208 53.8411 85.7031 53.5859C85.3854 53.3255 84.8464 53.1953 84.0859 53.1953H81.4219V56.1797H84.0078C84.7578 56.1797 85.3073 56.0521 85.6562 55.7969C86.0052 55.5365 86.1797 55.151 86.1797 54.6406ZM95.0938 53.2031H92.2188V61H91.4453V53.2031H88.5859V52.5078H95.0938V53.2031ZM103.867 56.7422C103.867 57.3984 103.786 57.9974 103.625 58.5391C103.464 59.0755 103.224 59.5391 102.906 59.9297C102.589 60.3203 102.193 60.6224 101.719 60.8359C101.25 61.0495 100.703 61.1562 100.078 61.1562C99.4844 61.1562 98.9557 61.0521 98.4922 60.8438C98.0286 60.6302 97.6354 60.3281 97.3125 59.9375C96.9948 59.5469 96.7526 59.0833 96.5859 58.5469C96.4193 58.0052 96.3359 57.4036 96.3359 56.7422C96.3359 55.8307 96.487 55.0469 96.7891 54.3906C97.0964 53.7292 97.5339 53.224 98.1016 52.875C98.6745 52.5208 99.3594 52.3438 100.156 52.3438C100.979 52.3438 101.664 52.5312 102.211 52.9062C102.763 53.276 103.177 53.7917 103.453 54.4531C103.729 55.1146 103.867 55.8776 103.867 56.7422ZM97.1484 56.7422C97.1484 57.487 97.2552 58.138 97.4688 58.6953C97.6823 59.2526 98.0052 59.6875 98.4375 60C98.875 60.3125 99.4271 60.4688 100.094 60.4688C100.776 60.4688 101.336 60.3125 101.773 60C102.211 59.6875 102.534 59.25 102.742 58.6875C102.951 58.125 103.055 57.4766 103.055 56.7422C103.055 56.0286 102.956 55.3932 102.758 54.8359C102.56 54.2786 102.247 53.8411 101.82 53.5234C101.393 53.2005 100.836 53.0391 100.148 53.0391C99.1641 53.0391 98.4167 53.3672 97.9062 54.0234C97.401 54.6797 97.1484 55.5859 97.1484 56.7422ZM109.977 52.3438C111.07 52.3438 111.917 52.7109 112.516 53.4453C113.12 54.1797 113.422 55.263 113.422 56.6953C113.422 57.6536 113.279 58.4661 112.992 59.1328C112.706 59.7943 112.297 60.2969 111.766 60.6406C111.24 60.9844 110.607 61.1562 109.867 61.1562C109.357 61.1562 108.911 61.0807 108.531 60.9297C108.156 60.7734 107.844 60.5651 107.594 60.3047C107.344 60.0391 107.151 59.7474 107.016 59.4297H106.961C106.977 59.7266 106.99 60.0365 107 60.3594C107.01 60.6823 107.016 60.987 107.016 61.2734V64.7578H106.219V52.5078H106.875L106.969 54.2031H107.016C107.156 53.8802 107.354 53.5755 107.609 53.2891C107.865 53.0026 108.188 52.7734 108.578 52.6016C108.969 52.4297 109.435 52.3438 109.977 52.3438ZM109.875 53.0391C109.234 53.0391 108.701 53.1797 108.273 53.4609C107.852 53.737 107.536 54.1432 107.328 54.6797C107.125 55.2109 107.021 55.862 107.016 56.6328V56.7656C107.016 57.5938 107.117 58.2839 107.32 58.8359C107.529 59.3828 107.839 59.7917 108.25 60.0625C108.667 60.3333 109.182 60.4688 109.797 60.4688C110.401 60.4688 110.911 60.3203 111.328 60.0234C111.745 59.7266 112.062 59.2969 112.281 58.7344C112.5 58.1719 112.609 57.4896 112.609 56.6875C112.609 55.4948 112.38 54.5885 111.922 53.9688C111.469 53.349 110.786 53.0391 109.875 53.0391ZM119.148 61.1562C118.305 61.1562 117.591 60.9818 117.008 60.6328C116.43 60.2786 115.992 59.776 115.695 59.125C115.404 58.4688 115.258 57.6927 115.258 56.7969C115.258 55.8646 115.427 55.0677 115.766 54.4062C116.104 53.7396 116.581 53.2292 117.195 52.875C117.81 52.5208 118.531 52.3438 119.359 52.3438C119.766 52.3438 120.143 52.3802 120.492 52.4531C120.841 52.526 121.156 52.6276 121.438 52.7578L121.227 53.4531C120.935 53.3229 120.625 53.224 120.297 53.1562C119.969 53.0885 119.654 53.0547 119.352 53.0547C118.654 53.0547 118.06 53.2083 117.57 53.5156C117.086 53.8177 116.714 54.25 116.453 54.8125C116.198 55.3698 116.07 56.0286 116.07 56.7891C116.07 57.5026 116.18 58.1354 116.398 58.6875C116.617 59.2344 116.953 59.6667 117.406 59.9844C117.859 60.2969 118.44 60.4531 119.148 60.4531C119.56 60.4531 119.951 60.4115 120.32 60.3281C120.695 60.2448 121.036 60.138 121.344 60.0078V60.7266C121.068 60.8516 120.747 60.9531 120.383 61.0312C120.023 61.1146 119.612 61.1562 119.148 61.1562ZM127.984 52.5078H128.898L125.055 56.6328L129.133 61H128.156L124.156 56.6953V61H123.359V52.5078H124.156V56.6328L127.984 52.5078ZM131.469 52.5078V58.6094C131.469 58.7292 131.466 58.8516 131.461 58.9766C131.461 59.1016 131.458 59.2292 131.453 59.3594C131.453 59.4896 131.451 59.6172 131.445 59.7422C131.44 59.8672 131.432 59.9896 131.422 60.1094L136.492 52.5078H137.461V61H136.711V54.8438C136.711 54.6875 136.711 54.526 136.711 54.3594C136.716 54.1875 136.721 54.0182 136.727 53.8516C136.732 53.6797 136.737 53.5182 136.742 53.3672L131.648 61H130.703V52.5078H131.469ZM143.523 52.3438C144.247 52.3438 144.849 52.513 145.328 52.8516C145.812 53.1901 146.172 53.6536 146.406 54.2422C146.646 54.8307 146.766 55.5052 146.766 56.2656V56.8359H140.633C140.633 58.0026 140.901 58.8984 141.438 59.5234C141.979 60.1484 142.753 60.4609 143.758 60.4609C144.284 60.4609 144.74 60.4193 145.125 60.3359C145.516 60.2474 145.948 60.099 146.422 59.8906V60.6172C146.005 60.8047 145.589 60.9401 145.172 61.0234C144.755 61.112 144.276 61.1562 143.734 61.1562C142.875 61.1562 142.154 60.9792 141.57 60.625C140.992 60.2656 140.555 59.7604 140.258 59.1094C139.966 58.4583 139.82 57.6979 139.82 56.8281C139.82 55.9792 139.961 55.2161 140.242 54.5391C140.529 53.862 140.945 53.3281 141.492 52.9375C142.044 52.5417 142.721 52.3438 143.523 52.3438ZM143.516 53.0234C142.703 53.0234 142.044 53.2943 141.539 53.8359C141.039 54.3724 140.745 55.1484 140.656 56.1641H145.945C145.945 55.5443 145.857 54.9974 145.68 54.5234C145.503 54.0495 145.234 53.6823 144.875 53.4219C144.521 53.1562 144.068 53.0234 143.516 53.0234ZM151.859 52.5078H152.695L154.758 57.8984C154.883 58.2161 154.992 58.5104 155.086 58.7812C155.185 59.0469 155.271 59.2917 155.344 59.5156C155.417 59.7344 155.477 59.9349 155.523 60.1172H155.57C155.648 59.8776 155.753 59.5703 155.883 59.1953C156.013 58.8151 156.161 58.3932 156.328 57.9297L158.367 52.5078H159.211L155.336 62.5938C155.148 63.0833 154.943 63.4974 154.719 63.8359C154.495 64.1797 154.232 64.4375 153.93 64.6094C153.628 64.7865 153.263 64.875 152.836 64.875C152.643 64.875 152.469 64.8594 152.312 64.8281C152.156 64.8021 152.005 64.7656 151.859 64.7188V64.0391C151.995 64.0807 152.133 64.1146 152.273 64.1406C152.419 64.1719 152.578 64.1875 152.75 64.1875C153.047 64.1875 153.302 64.125 153.516 64C153.734 63.8802 153.93 63.6927 154.102 63.4375C154.273 63.1823 154.435 62.8568 154.586 62.4609L155.164 60.9531L151.859 52.5078ZM165.234 52.5078H166.148L162.305 56.6328L166.383 61H165.406L161.406 56.6953V61H160.609V52.5078H161.406V56.6328L165.234 52.5078ZM171.711 52.3438C172.805 52.3438 173.651 52.7109 174.25 53.4453C174.854 54.1797 175.156 55.263 175.156 56.6953C175.156 57.6536 175.013 58.4661 174.727 59.1328C174.44 59.7943 174.031 60.2969 173.5 60.6406C172.974 60.9844 172.341 61.1562 171.602 61.1562C171.091 61.1562 170.646 61.0807 170.266 60.9297C169.891 60.7734 169.578 60.5651 169.328 60.3047C169.078 60.0391 168.885 59.7474 168.75 59.4297H168.695C168.711 59.7266 168.724 60.0365 168.734 60.3594C168.745 60.6823 168.75 60.987 168.75 61.2734V64.7578H167.953V52.5078H168.609L168.703 54.2031H168.75C168.891 53.8802 169.089 53.5755 169.344 53.2891C169.599 53.0026 169.922 52.7734 170.312 52.6016C170.703 52.4297 171.169 52.3438 171.711 52.3438ZM171.609 53.0391C170.969 53.0391 170.435 53.1797 170.008 53.4609C169.586 53.737 169.271 54.1432 169.062 54.6797C168.859 55.2109 168.755 55.862 168.75 56.6328V56.7656C168.75 57.5938 168.852 58.2839 169.055 58.8359C169.263 59.3828 169.573 59.7917 169.984 60.0625C170.401 60.3333 170.917 60.4688 171.531 60.4688C172.135 60.4688 172.646 60.3203 173.062 60.0234C173.479 59.7266 173.797 59.2969 174.016 58.7344C174.234 58.1719 174.344 57.4896 174.344 56.6875C174.344 55.4948 174.115 54.5885 173.656 53.9688C173.203 53.349 172.521 53.0391 171.609 53.0391ZM180.445 52.3594C181.378 52.3594 182.076 52.5938 182.539 53.0625C183.003 53.5312 183.234 54.2786 183.234 55.3047V61H182.625L182.484 59.5156H182.438C182.255 59.8333 182.034 60.1172 181.773 60.3672C181.513 60.612 181.193 60.8047 180.812 60.9453C180.438 61.0859 179.979 61.1562 179.438 61.1562C178.891 61.1562 178.422 61.0651 178.031 60.8828C177.646 60.7005 177.346 60.4349 177.133 60.0859C176.924 59.737 176.82 59.3125 176.82 58.8125C176.82 57.9688 177.169 57.3281 177.867 56.8906C178.565 56.4479 179.568 56.1979 180.875 56.1406L182.453 56.0625V55.4453C182.453 54.5755 182.281 53.9557 181.938 53.5859C181.594 53.2161 181.086 53.0312 180.414 53.0312C179.977 53.0312 179.555 53.0885 179.148 53.2031C178.747 53.3125 178.339 53.4714 177.922 53.6797L177.672 53.0234C178.078 52.8307 178.513 52.6719 178.977 52.5469C179.445 52.4219 179.935 52.3594 180.445 52.3594ZM182.445 56.6797L180.961 56.7422C179.883 56.7943 179.062 56.987 178.5 57.3203C177.938 57.6536 177.656 58.1536 177.656 58.8203C177.656 59.3568 177.823 59.7682 178.156 60.0547C178.495 60.3411 178.964 60.4844 179.562 60.4844C180.495 60.4844 181.206 60.2188 181.695 59.6875C182.19 59.1562 182.44 58.4323 182.445 57.5156V56.6797ZM196.758 52.5078V61H185.953V52.5078H186.742V60.3047H190.961V52.5078H191.75V60.3047H195.969V52.5078H196.758ZM202.805 52.3438C203.529 52.3438 204.13 52.513 204.609 52.8516C205.094 53.1901 205.453 53.6536 205.688 54.2422C205.927 54.8307 206.047 55.5052 206.047 56.2656V56.8359H199.914C199.914 58.0026 200.182 58.8984 200.719 59.5234C201.26 60.1484 202.034 60.4609 203.039 60.4609C203.565 60.4609 204.021 60.4193 204.406 60.3359C204.797 60.2474 205.229 60.099 205.703 59.8906V60.6172C205.286 60.8047 204.87 60.9401 204.453 61.0234C204.036 61.112 203.557 61.1562 203.016 61.1562C202.156 61.1562 201.435 60.9792 200.852 60.625C200.273 60.2656 199.836 59.7604 199.539 59.1094C199.247 58.4583 199.102 57.6979 199.102 56.8281C199.102 55.9792 199.242 55.2161 199.523 54.5391C199.81 53.862 200.227 53.3281 200.773 52.9375C201.326 52.5417 202.003 52.3438 202.805 52.3438ZM202.797 53.0234C201.984 53.0234 201.326 53.2943 200.82 53.8359C200.32 54.3724 200.026 55.1484 199.938 56.1641H205.227C205.227 55.5443 205.138 54.9974 204.961 54.5234C204.784 54.0495 204.516 53.6823 204.156 53.4219C203.802 53.1562 203.349 53.0234 202.797 53.0234ZM209.188 52.5078V56.2266H214.539V52.5078H215.328V61H214.539V56.9219H209.188V61H208.391V52.5078H209.188ZM218.938 52.5078V58.6094C218.938 58.7292 218.935 58.8516 218.93 58.9766C218.93 59.1016 218.927 59.2292 218.922 59.3594C218.922 59.4896 218.919 59.6172 218.914 59.7422C218.909 59.8672 218.901 59.9896 218.891 60.1094L223.961 52.5078H224.93V61H224.18V54.8438C224.18 54.6875 224.18 54.526 224.18 54.3594C224.185 54.1875 224.19 54.0182 224.195 53.8516C224.201 53.6797 224.206 53.5182 224.211 53.3672L219.117 61H218.172V52.5078H218.938ZM227.625 61H226.68L229.242 57.3438C228.779 57.2865 228.383 57.1615 228.055 56.9688C227.727 56.776 227.477 56.5156 227.305 56.1875C227.138 55.8594 227.055 55.4609 227.055 54.9922C227.055 54.1589 227.318 53.5365 227.844 53.125C228.375 52.7135 229.06 52.5078 229.898 52.5078H233.406V61H232.617V57.4219H230.07L227.625 61ZM227.828 54.9766C227.828 55.5651 228.01 56.0052 228.375 56.2969C228.74 56.5885 229.289 56.7344 230.023 56.7344H232.617V53.1953H229.984C229.276 53.1953 228.74 53.3542 228.375 53.6719C228.01 53.9844 227.828 54.4193 227.828 54.9766Z" fill="#032D24"/>
</svg>
