<svg width="40" height="40" viewBox="0 0 40 40" fill="none" xmlns="http://www.w3.org/2000/svg">
<rect x="0.5" y="-0.5" width="39" height="39" transform="matrix(1 0 0 -1 0 39)" stroke="black"/>
<path d="M19.2929 7.29289C19.6834 6.90237 20.3166 6.90237 20.7071 7.29289L27.0711 13.6569C27.4616 14.0474 27.4616 14.6805 27.0711 15.0711C26.6805 15.4616 26.0474 15.4616 25.6569 15.0711L20 9.41421L14.3431 15.0711C13.9526 15.4616 13.3195 15.4616 12.9289 15.0711C12.5384 14.6805 12.5384 14.0474 12.9289 13.6569L19.2929 7.29289ZM20 32H19V8H20H21V32H20Z" fill="black"/>
</svg>
