<svg width="19" height="19" viewBox="0 0 19 19" fill="none" xmlns="http://www.w3.org/2000/svg">
<rect x="0.675781" y="0.5" width="17.8226" height="17.8217" rx="5.5" stroke="#FFFFFB"/>
<path d="M5.01749 5.81055C6.85794 3.35978 10.3369 2.86454 12.788 4.70466C15.2391 6.54494 15.734 10.0237 13.8938 12.4748C13.0423 13.6089 11.4241 13.9477 9.52588 14.0764C9.06325 14.1078 8.59698 14.1265 8.13362 14.1448C7.67315 14.163 7.21376 14.1803 6.77653 14.2103C6.17779 14.2514 5.58833 14.3186 5.06366 14.452C5.01023 14.0243 4.92356 13.5454 4.82534 13.0519C4.66701 12.2564 4.48321 11.3866 4.36048 10.4962C4.11107 8.68683 4.14527 6.97218 5.01749 5.81055Z" stroke="#FFFFFB"/>
</svg>
