<svg width="40" height="40" viewBox="0 0 40 40" fill="none" xmlns="http://www.w3.org/2000/svg">
<rect x="0.5" y="-0.5" width="39" height="39" transform="matrix(1 0 0 -1 0 39)" stroke="black"/>
<path d="M20.2929 32.7071C20.6834 33.0976 21.3166 33.0976 21.7071 32.7071L28.0711 26.3431C28.4616 25.9526 28.4616 25.3195 28.0711 24.9289C27.6805 24.5384 27.0474 24.5384 26.6569 24.9289L21 30.5858L15.3431 24.9289C14.9526 24.5384 14.3195 24.5384 13.9289 24.9289C13.5384 25.3195 13.5384 25.9526 13.9289 26.3431L20.2929 32.7071ZM21 8H20V32H21H22V8H21Z" fill="black"/>
</svg>
